<?xml version="1.0" encoding="UTF-8" standalone="no"?>
<!-- Created with Inkscape (http://www.inkscape.org/) -->

<svg
   xmlns:dc="http://purl.org/dc/elements/1.1/"
   xmlns:cc="http://creativecommons.org/ns#"
   xmlns:rdf="http://www.w3.org/1999/02/22-rdf-syntax-ns#"
   xmlns:svg="http://www.w3.org/2000/svg"
   xmlns="http://www.w3.org/2000/svg"
   xmlns:sodipodi="http://sodipodi.sourceforge.net/DTD/sodipodi-0.dtd"
   xmlns:inkscape="http://www.inkscape.org/namespaces/inkscape"
   width="7in"
   height="0.75in"
   viewBox="0 0 630.00004 67.5"
   id="svg2"
   version="1.1"
   inkscape:version="0.91 r13725"
   sodipodi:docname="eha-footer.svg">
  <defs
     id="defs4">
    <clipPath
       id="clipPath4171"
       clipPathUnits="userSpaceOnUse">
      <path
         inkscape:connector-curvature="0"
         id="path4173"
         d="m 0,0 1024,0 0,768 L 0,768 0,0 Z" />
    </clipPath>
    <clipPath
       id="clipPath4203"
       clipPathUnits="userSpaceOnUse">
      <path
         inkscape:connector-curvature="0"
         id="path4205"
         d="m 48,691 243,0 0,61.99994 -243,0 L 48,691 Z" />
    </clipPath>
    <clipPath
       id="clipPath4269"
       clipPathUnits="userSpaceOnUse">
      <path
         inkscape:connector-curvature="0"
         id="path4271"
         d="m 0,0 1024,0 0,768 L 0,768 0,0 Z" />
    </clipPath>
    <clipPath
       id="clipPath4355"
       clipPathUnits="userSpaceOnUse">
      <path
         inkscape:connector-curvature="0"
         id="path4357"
         d="m 62,410 502,0 0,128 -502,0 0,-128 z" />
    </clipPath>
    <clipPath
       id="clipPath4697"
       clipPathUnits="userSpaceOnUse">
      <path
         inkscape:connector-curvature="0"
         id="path4699"
         d="m 0,0 1024,0 0,768 L 0,768 0,0 Z" />
    </clipPath>
    <clipPath
       id="clipPath4729"
       clipPathUnits="userSpaceOnUse">
      <path
         inkscape:connector-curvature="0"
         id="path4731"
         d="m 48,691 243,0 0,61.99994 -243,0 L 48,691 Z" />
    </clipPath>
    <clipPath
       id="clipPath4795"
       clipPathUnits="userSpaceOnUse">
      <path
         inkscape:connector-curvature="0"
         id="path4797"
         d="m 0,0 1024,0 0,768 L 0,768 0,0 Z" />
    </clipPath>
    <clipPath
       id="clipPath4923"
       clipPathUnits="userSpaceOnUse">
      <path
         inkscape:connector-curvature="0"
         id="path4925"
         d="m 63,457 414,0 0,87 -414,0 0,-87 z" />
    </clipPath>
    <clipPath
       id="clipPath4933"
       clipPathUnits="userSpaceOnUse">
      <path
         inkscape:connector-curvature="0"
         id="path4935"
         d="m 63,457 414,0 0,86.9996 -414,0 L 63,457 Z" />
    </clipPath>
  </defs>
  <sodipodi:namedview
     id="base"
     pagecolor="#ffffff"
     bordercolor="#666666"
     borderopacity="1.0"
     inkscape:pageopacity="0.0"
     inkscape:pageshadow="2"
     inkscape:zoom="2.8284271"
     inkscape:cx="239.04724"
     inkscape:cy="137.67477"
     inkscape:document-units="in"
     inkscape:current-layer="layer1"
     showgrid="false"
     units="in"
     showguides="false"
     inkscape:guide-bbox="true"
     inkscape:window-width="1680"
     inkscape:window-height="1001"
     inkscape:window-x="0"
     inkscape:window-y="1"
     inkscape:window-maximized="1">
    <sodipodi:guide
       position="643.46721,118.08683"
       orientation="1,0"
       id="guide5331" />
  </sodipodi:namedview>
  <metadata
     id="metadata7">
    <rdf:RDF>
      <cc:Work
         rdf:about="">
        <dc:format>image/svg+xml</dc:format>
        <dc:type
           rdf:resource="http://purl.org/dc/dcmitype/StillImage" />
        <dc:title></dc:title>
      </cc:Work>
    </rdf:RDF>
  </metadata>
  <g
     inkscape:label="Layer 1"
     inkscape:groupmode="layer"
     id="layer1"
     transform="translate(0,-984.86232)">
    <g
       id="g4165"
       transform="matrix(1.2500001,0,0,-1.2500001,-845.71437,558.07658)" />
    <g
       id="g4351"
       transform="matrix(0.48854202,0,0,-0.48854202,817.2345,1150.3808)">
      <g
         id="g4353"
         clip-path="url(#clipPath4355)"
         transform="matrix(0.811882,0,0,0.811882,-879.57676,-116.80718)">
        <path
           d="m 62,473.9984 c 0,35.372 28.5318,64.0011 63.7839,64.0011 0.5386,0 0.9655,-0.4365 0.9655,-0.9653 0,-0.538 -0.4269,-0.9699 -0.9655,-0.9699 -17.0968,0 -32.55562,-6.9425 -43.74522,-18.1664 -11.19309,-11.2342 -18.10763,-26.7428 -18.11345,-43.8995 0.0058,-17.1626 6.92036,-32.6572 18.11345,-43.8973 11.1896,-11.2285 26.64842,-18.1652 43.74522,-18.1745 0.5386,0 0.9655,-0.4202 0.9655,-0.9595 0,-0.5404 -0.4269,-0.9676 -0.9655,-0.9676 C 90.5318,409.9995 62,438.6216 62,473.9984"
           style="fill:#79bb05;fill-opacity:1;fill-rule:nonzero;stroke:none"
           id="path4359"
           inkscape:connector-curvature="0" />
        <path
           d="m 66.84914,473.9984 c 0,32.6653 26.34948,59.1362 58.93526,59.1362 32.5952,0 58.9435,-26.4709 58.9435,-59.1362 0,-32.6735 -26.3483,-59.1328 -58.9435,-59.1328 l 0,0.9664 0,0.9653 c 15.7637,0 30.0162,6.4021 40.3252,16.7505 10.3171,10.3543 16.6861,24.6466 16.6861,40.4506 0,15.8004 -6.369,30.0986 -16.6861,40.447 -10.3137,10.3589 -24.5615,16.7505 -40.3252,16.7505 -15.7636,0 -30.01028,-6.3916 -40.32277,-16.7505 -10.31481,-10.3484 -16.68726,-24.6466 -16.68726,-40.447 0,-15.804 6.37245,-30.0963 16.68726,-40.4506 10.31249,-10.3484 24.55917,-16.7505 40.32277,-16.7505 l 0,-0.9653 0,-0.9664 c -32.58578,0 -58.93526,26.4593 -58.93526,59.1328"
           style="fill:#79bb05;fill-opacity:1;fill-rule:nonzero;stroke:none"
           id="path4361"
           inkscape:connector-curvature="0" />
        <path
           d="m 73.59023,473.9984 c 0,-28.9513 23.34356,-52.3385 52.19407,-52.3385 28.8564,0 52.1965,23.3872 52.1965,52.3385 0,28.9559 -23.3401,52.3419 -52.1965,52.3419 -28.85051,0 -52.19407,-23.386 -52.19407,-52.3419 m 13.91284,-38.394 c -9.78784,9.8057 -15.83807,23.3861 -15.83807,38.394 0,15.0137 6.05023,28.5824 15.83807,38.3974 9.79367,9.8244 23.32963,15.8798 38.28123,15.8798 14.9598,0 28.4923,-6.0554 38.2859,-15.8798 9.7914,-9.815 15.8404,-23.3837 15.8404,-38.3974 0,-15.0079 -6.049,-28.5883 -15.8404,-38.394 -9.7936,-9.8173 -23.3261,-15.8798 -38.2859,-15.8798 -14.9516,0 -28.48756,6.0625 -38.28123,15.8798"
           style="fill:#79bb05;fill-opacity:1;fill-rule:nonzero;stroke:none"
           id="path4363"
           inkscape:connector-curvature="0" />
        <path
           d="m 125.784,424.5302 0,0.9664 0,0.9653 c 13.0985,0 24.9279,5.3154 33.4943,13.9247 8.5664,8.6081 13.857,20.4902 13.857,33.6119 0,13.1299 -5.2906,25.0061 -13.857,33.6072 -8.5664,8.6058 -20.3958,13.9341 -33.4943,13.9341 -13.0939,0 -24.9268,-5.3283 -33.48856,-13.9341 -8.56407,-8.6011 -13.85933,-20.4773 -13.85933,-33.6072 0,-13.1217 5.29526,-25.0038 13.85933,-33.6119 8.56176,-8.6093 20.39466,-13.9247 33.48856,-13.9247 l 0,-0.9653 0,-0.9664 c -27.24871,0 -49.27312,22.1663 -49.27312,49.4683 0,27.3008 22.02441,49.4789 49.27312,49.4789 27.2545,0 49.2789,-22.1781 49.2789,-49.4789 0,-27.302 -22.0244,-49.4683 -49.2789,-49.4777 l 0,0.009 z"
           style="fill:#79bb05;fill-opacity:1;fill-rule:nonzero;stroke:none"
           id="path4365"
           inkscape:connector-curvature="0" />
        <path
           d="m 94.34073,442.4406 c -8.04525,8.0724 -13.01363,19.2285 -13.0113,31.5576 -0.0023,12.3304 4.96605,23.4911 13.0113,31.5565 8.03827,8.063 19.15927,13.0552 31.44347,13.0552 0.534,0 0.9655,-0.4308 0.9655,-0.9676 0,-0.5312 -0.4315,-0.97 -0.9655,-0.97 -23.5169,0 -42.52605,-19.0767 -42.52605,-42.6741 0,-23.5938 19.00915,-42.6764 42.52605,-42.6764 23.5192,0 42.5377,19.0826 42.5377,42.6764 0,0.5311 0.4269,0.9653 0.9621,0.9653 0.5292,0 0.9608,-0.4342 0.9608,-0.9653 0,-12.3291 -4.966,-23.4852 -13.0066,-31.5576 -8.0429,-8.0618 -19.1674,-13.0516 -31.454,-13.0516 -12.2842,0 -23.4052,4.9898 -31.44347,13.0516"
           style="fill:#79bb05;fill-opacity:1;fill-rule:nonzero;stroke:none"
           id="path4367"
           inkscape:connector-curvature="0" />
        <path
           d="m 97.76357,445.8841 c -7.16116,7.19 -11.58977,17.1368 -11.58977,28.1062 0,10.9834 4.42861,20.9209 11.58977,28.1202 7.16003,7.1841 17.07343,11.6335 28.01993,11.6335 10.9546,0 20.8693,-4.4494 28.027,-11.6335 7.1658,-7.1993 11.5909,-17.1368 11.5909,-28.1202 0,-0.5229 -0.4339,-0.9583 -0.9632,-0.9583 -0.5363,0 -0.9655,0.4354 -0.9655,0.9583 0,10.457 -4.2088,19.8961 -11.0256,26.7441 -6.8192,6.8515 -16.2359,11.0732 -26.6636,11.0732 -10.4183,0 -19.8374,-4.2217 -26.65424,-11.0732 -6.81683,-6.848 -11.0314,-16.2871 -11.0314,-26.7441 0,-10.4406 4.21457,-19.8844 11.0314,-26.7347 6.81684,-6.8445 16.23594,-11.0698 26.65424,-11.0698 0.5386,0 0.9655,-0.4377 0.9655,-0.9711 0,-0.5369 -0.4269,-0.9664 -0.9655,-0.9664 -10.9465,0 -20.8599,4.4458 -28.01993,11.6358"
           style="fill:#79bb05;fill-opacity:1;fill-rule:nonzero;stroke:none"
           id="path4369"
           inkscape:connector-curvature="0" />
        <path
           d="m 92.59464,473.9984 c 0,-18.4162 14.83066,-33.2735 33.18956,-33.2735 18.3554,0 33.1919,14.8573 33.1989,33.2735 -0.007,18.4231 -14.8435,33.2675 -33.1989,33.2675 -18.3589,0 -33.18956,-14.8444 -33.18956,-33.2675 m 8.79786,-24.4576 c -6.23282,6.2574 -10.08095,14.89 -10.08095,24.4576 0,9.5593 3.84813,18.2118 10.08095,24.4587 6.2399,6.248 14.8644,10.1068 24.3917,10.1068 9.5343,0 18.1553,-3.8588 24.3882,-10.1068 6.2375,-6.2469 10.0938,-14.8994 10.0891,-24.4587 0.005,-9.5676 -3.8516,-18.2002 -10.0891,-24.4576 -6.2329,-6.2515 -14.8539,-10.1021 -24.3882,-10.1021 -9.5273,0 -18.1518,3.8506 -24.3917,10.1021"
           style="fill:#79bb05;fill-opacity:1;fill-rule:nonzero;stroke:none"
           id="path4371"
           inkscape:connector-curvature="0" />
        <path
           d="m 95.83798,473.9984 c 0,16.5964 13.40452,30.0834 29.94632,30.0834 0.534,0 0.9656,-0.4319 0.9656,-0.9734 0,-0.5276 -0.4316,-0.9572 -0.9656,-0.9572 -7.7381,0 -14.7387,-3.1596 -19.8153,-8.2602 -5.0719,-5.0925 -8.20579,-12.1226 -8.20579,-19.8926 0,-7.7701 3.13389,-14.8083 8.20579,-19.8985 5.0766,-5.0995 12.0772,-8.2486 19.8153,-8.2486 7.7486,0 14.7469,3.1491 19.8177,8.2486 5.073,5.0902 8.2081,12.1284 8.2081,19.8985 0,0.531 0.4304,0.9652 0.9655,0.9652 0.5305,0 0.9632,-0.4342 0.9632,-0.9652 0,-16.6047 -13.4045,-30.0847 -29.9545,-30.0847 -16.5418,0 -29.94632,13.48 -29.94632,30.0847"
           style="fill:#79bb05;fill-opacity:1;fill-rule:nonzero;stroke:none"
           id="path4373"
           inkscape:connector-curvature="0" />
        <path
           d="m 123.8544,449.7447 c 0,1.0738 0.8713,1.9376 1.9299,1.9376 12.2796,0.0303 22.2257,9.9644 22.2408,22.3157 -0.0151,12.3525 -9.9612,22.3239 -22.2408,22.3239 -12.2796,0 -22.2152,-9.9714 -22.2419,-22.3239 0,-1.0657 -0.8643,-1.9306 -1.9264,-1.9306 -1.0644,0 -1.92639,0.8649 -1.92639,1.9306 0,14.4873 11.68749,26.1558 26.09469,26.1873 14.4154,-0.0315 26.1017,-11.7 26.1041,-26.1873 -0.002,-14.4838 -11.6887,-26.1815 -26.1041,-26.1815 -1.0586,0 -1.9299,0.8579 -1.9299,1.9282"
           style="fill:#79bb05;fill-opacity:1;fill-rule:nonzero;stroke:none"
           id="path4375"
           inkscape:connector-curvature="0" />
        <path
           d="m 105.4987,473.9984 c 0,0.531 0.4327,0.9652 0.9644,0.9652 0.5327,0 0.962,-0.4342 0.962,-0.9652 0.0198,-10.1804 8.2174,-18.3986 18.3589,-18.4185 10.1438,0.0199 18.3461,8.2381 18.3554,18.4185 0,0.531 0.4444,0.9652 0.9725,0.9652 0.5281,0 0.9655,-0.4342 0.9655,-0.9652 0,-11.2355 -9.0852,-20.3595 -20.2934,-20.3595 -11.2047,0 -20.2853,9.124 -20.2853,20.3595"
           style="fill:#79bb05;fill-opacity:1;fill-rule:nonzero;stroke:none"
           id="path4377"
           inkscape:connector-curvature="0" />
        <path
           d="m 112.8816,473.9984 c 0.007,-7.1737 5.778,-12.9093 12.9019,-12.9151 7.1274,0.006 12.909,5.7414 12.909,12.9151 0,7.1747 -5.7816,12.922 -12.909,12.922 -7.1239,0 -12.895,-5.7473 -12.9019,-12.922 m -3.2107,0 c 0.014,8.9594 7.2333,16.1295 16.1126,16.1423 8.891,-0.0128 16.1022,-7.1829 16.1173,-16.1423 -0.0151,-8.9618 -7.2263,-16.1238 -16.1173,-16.1366 -8.8793,0.0128 -16.0986,7.1748 -16.1126,16.1366"
           style="fill:#79bb05;fill-opacity:1;fill-rule:nonzero;stroke:none"
           id="path4379"
           inkscape:connector-curvature="0" />
        <path
           d="m 123.8544,464.2686 c 0,1.0738 0.8713,1.9375 1.9299,1.9375 4.2658,0.006 7.7277,3.504 7.737,7.7923 -0.009,4.2894 -3.4712,7.7864 -7.737,7.7969 -4.2657,-0.0105 -7.7195,-3.5075 -7.7311,-7.7969 0,-1.0657 -0.8667,-1.9306 -1.9253,-1.9306 -1.0725,0 -1.9345,0.8649 -1.9345,1.9306 0.007,6.4196 5.1778,11.6638 11.5909,11.6638 6.4167,0 11.591,-5.2442 11.5933,-11.6638 -0.002,-6.4115 -5.1766,-11.6545 -11.5933,-11.6639 -1.0586,0 -1.9299,0.8696 -1.9299,1.9341"
           style="fill:#79bb05;fill-opacity:1;fill-rule:nonzero;stroke:none"
           id="path4381"
           inkscape:connector-curvature="0" />
        <path
           d="m 205.876,489.89 21.1415,0 0,-5.1567 -15.4612,0 0,-7.8681 14.6503,0 0,-5.1566 -14.6503,0 0,-8.6817 16.272,0 0,-5.1602 -21.9523,0 0,32.0233 z"
           style="fill:#79bb05;fill-opacity:1;fill-rule:nonzero;stroke:none"
           id="path4383"
           inkscape:connector-curvature="0" />
        <path
           d="m 245.7621,473.0648 c -1.261,1.3143 -2.6592,2.1722 -4.1017,2.1722 -3.9668,0 -6.355,-3.1211 -6.355,-6.5107 0,-3.3953 2.3882,-6.5153 6.355,-6.5153 1.667,0 3.2002,0.726 4.1913,2.0333 l 3.6073,-3.8868 c -2.209,-2.22 -5.906,-3.0289 -7.7986,-3.0289 -6.5365,0 -11.7654,4.565 -11.7654,11.3977 0,6.8282 5.2289,11.3943 11.7654,11.3943 2.7488,0 5.7699,-0.9933 7.8428,-3.2997 l -3.7411,-3.7561 z"
           style="fill:#79bb05;fill-opacity:1;fill-rule:nonzero;stroke:none"
           id="path4385"
           inkscape:connector-curvature="0" />
        <path
           d="m 263.0368,462.2112 c 3.9657,0 6.3562,3.1199 6.3562,6.5153 0,3.3884 -2.3905,6.5106 -6.3562,6.5106 -3.9668,0 -6.355,-3.1222 -6.355,-6.5106 0,-3.3954 2.3882,-6.5153 6.355,-6.5153 m 0,17.9095 c 6.5353,0 11.7643,-4.5661 11.7643,-11.3942 0,-6.8328 -5.229,-11.3989 -11.7643,-11.3989 -6.5364,0 -11.7654,4.5661 -11.7654,11.3989 0,6.8281 5.229,11.3942 11.7654,11.3942"
           style="fill:#79bb05;fill-opacity:1;fill-rule:nonzero;stroke:none"
           id="path4387"
           inkscape:connector-curvature="0" />
        <path
           d="m 280.7258,489.89 5.6803,0 0,-12.754 14.9203,0 0,12.754 5.6791,0 0,-32.0233 -5.6791,0 0,14.1103 -14.9203,0 0,-14.1103 -5.6803,0 0,32.0233 z"
           style="fill:#79bb05;fill-opacity:1;fill-rule:nonzero;stroke:none"
           id="path4389"
           inkscape:connector-curvature="0" />
        <path
           d="m 327.1775,470.8922 c -0.0489,3.169 -2.1195,5.1579 -5.5012,5.1579 -3.199,0 -5.1847,-2.0344 -5.5884,-5.1579 l 11.0896,0 z m -11.0896,-4.0677 c 0.3595,-3.2086 2.7931,-5.1532 5.8153,-5.1532 2.7023,0 4.4611,1.2664 5.8117,2.939 l 3.8772,-2.939 c -2.5231,-3.1257 -5.7245,-4.3431 -9.1503,-4.3431 -6.5353,0 -11.7643,4.5649 -11.7643,11.3989 0,6.8281 5.229,11.393 11.7643,11.393 6.0421,0 10.1426,-4.2498 10.1426,-11.8016 l 0,-1.494 -16.4965,0 z"
           style="fill:#79bb05;fill-opacity:1;fill-rule:nonzero;stroke:none"
           id="path4391"
           inkscape:connector-curvature="0" />
        <path
           d="m 350.1422,467.5924 -1.1238,0 c -2.9768,0 -8.1127,-0.2276 -8.1127,-3.3475 0,-1.9854 2.0264,-2.8503 3.783,-2.8503 3.6957,0 5.4535,1.9434 5.4535,4.9804 l 0,1.2174 z m 0.3164,-6.7371 -0.1338,0 c -1.5332,-2.4418 -4.0564,-3.5273 -6.9425,-3.5273 -4.011,0 -7.8893,2.2142 -7.8893,6.5084 0,7.0557 8.2046,7.5529 13.615,7.5529 l 1.3506,0 0,0.5883 c 0,2.6717 -2.0742,4.0724 -4.9556,4.0724 -2.2545,0 -4.3298,-0.9035 -5.7699,-2.2586 l -2.8407,2.8468 c 2.3894,2.4441 5.7699,3.4818 9.1969,3.4818 9.2364,0 9.2364,-6.6916 9.2364,-9.7683 l 0,-12.4844 -4.8671,0 0,2.988 z"
           style="fill:#79bb05;fill-opacity:1;fill-rule:nonzero;stroke:none"
           id="path4393"
           inkscape:connector-curvature="0" />
        <path
           d="m 359.458,457.8669 5.4104,0 0,34.19434 -5.4104,0 0,-34.19434 z"
           style="fill:#79bb05;fill-opacity:1;fill-rule:nonzero;stroke:none"
           id="path4395"
           inkscape:connector-curvature="0" />
        <path
           d="m 368.8773,474.9671 0,4.6128 4.4635,0 0,6.2842 5.4081,0 0,-6.2842 5.9525,0 0,-4.6128 -5.9525,0 0,-9.4987 c 0,-2.1709 0.6305,-3.5272 3.0222,-3.5272 0.9445,0 2.2521,0.1797 2.9303,0.6781 l 0,-4.5719 c -1.1308,-0.5393 -3.0222,-0.719 -4.2844,-0.719 -5.7245,0 -7.0762,2.5795 -7.0762,7.6848 l 0,9.9539 -4.4635,0 z"
           style="fill:#79bb05;fill-opacity:1;fill-rule:nonzero;stroke:none"
           id="path4397"
           inkscape:connector-curvature="0" />
        <path
           d="m 395.1977,476.5475 0.0919,0 c 0.855,1.8092 3.0198,3.5729 6.3561,3.5729 5.8118,0 7.8859,-4.1156 7.8859,-8.544 l 0,-13.7088 -5.4104,0 0,10.9916 c 0,2.3986 -0.1792,6.3776 -3.9645,6.3776 -3.5631,0 -4.959,-2.6239 -4.959,-5.5209 l 0,-11.8483 -5.4081,0 0,34.1944 5.4081,0 0,-15.5145 z"
           style="fill:#79bb05;fill-opacity:1;fill-rule:nonzero;stroke:none"
           id="path4399"
           inkscape:connector-curvature="0" />
        <path
           d="m 436.5361,485.0063 -0.093,0 -6.6238,-15.7408 13.0276,0 -6.3108,15.7408 z m -1.7135,4.8836 3.5608,0 13.5697,-32.0222 -4.4182,0 -3.2467,7.8716 -15.959,0 -3.2875,-7.8716 -4.282,0 14.0629,32.0222 z"
           style="fill:#79bb05;fill-opacity:1;fill-rule:nonzero;stroke:none"
           id="path4401"
           inkscape:connector-curvature="0" />
        <path
           d="m 454.3806,457.8669 3.51544,0 0,34.19434 -3.51544,0 0,-34.19434 z"
           style="fill:#79bb05;fill-opacity:1;fill-rule:nonzero;stroke:none"
           id="path4403"
           inkscape:connector-curvature="0" />
        <path
           d="m 462.1001,457.8669 3.51428,0 0,34.19434 -3.51428,0 0,-34.19434 z"
           style="fill:#79bb05;fill-opacity:1;fill-rule:nonzero;stroke:none"
           id="path4405"
           inkscape:connector-curvature="0" />
        <path
           d="m 470.4571,479.0377 3.5154,0 0,-21.1708 -3.5154,0 0,21.1708 z m 1.7589,10.8526 c 1.4436,0 2.5708,-1.1766 2.5708,-2.5772 0,-1.494 -1.0818,-2.5795 -2.5708,-2.5795 -1.4856,0 -2.5686,1.0855 -2.5686,2.5795 0,1.4006 1.1273,2.5772 2.5686,2.5772"
           style="fill:#79bb05;fill-opacity:1;fill-rule:nonzero;stroke:none"
           id="path4407"
           inkscape:connector-curvature="0" />
        <path
           d="m 488.9633,468.0483 c -4.4635,0 -7.3484,-1.2244 -7.3484,-4.0735 0,-2.6694 1.9857,-3.665 4.6461,-3.665 4.0529,0 6.1282,2.939 6.2178,6.3764 l 0,1.3621 -3.5155,0 z m -10.1891,8.2743 c 2.166,2.2165 5.322,3.2577 8.386,3.2577 6.2213,0 8.834,-2.9881 8.834,-8.9583 l 0,-9.089 c 0,-1.2232 0.1373,-2.5795 0.3164,-3.6662 l -3.3805,0 c -0.2233,0.9548 -0.2233,2.2632 -0.2233,3.1678 l -0.0896,0 c -1.3994,-2.171 -3.7434,-3.707 -6.9425,-3.707 -4.2843,0 -7.844,2.1721 -7.844,6.2877 0,7.0067 8.1128,7.4152 13.2963,7.4152 l 1.3518,0 0,0.6361 c 0,3.0721 -1.938,4.656 -5.229,4.656 -2.2532,0 -4.5972,-0.768 -6.2654,-2.3064 l -2.2102,2.3064 z"
           style="fill:#79bb05;fill-opacity:1;fill-rule:nonzero;stroke:none"
           id="path4409"
           inkscape:connector-curvature="0" />
        <path
           d="m 500.4484,474.016 c 0,1.9445 -0.178,3.6171 -0.178,5.0213 l 3.3351,0 c 0,-1.131 0.0896,-2.3064 0.0896,-3.4829 l 0.0896,0 c 0.9457,2.0787 3.5585,4.0256 7.032,4.0256 5.543,0 8.0243,-3.5296 8.0243,-8.6396 l 0,-13.0726 -3.5165,0 0,12.7119 c 0,3.5262 -1.5333,5.7427 -4.8242,5.7427 -4.5507,0 -6.5365,-3.302 -6.5365,-8.1424 l 0,-10.3122 -3.5154,0 0,16.1482 z"
           style="fill:#79bb05;fill-opacity:1;fill-rule:nonzero;stroke:none"
           id="path4411"
           inkscape:connector-curvature="0" />
        <path
           d="m 538.6732,473.743 c -1.4891,1.8115 -3.1991,2.5795 -5.3186,2.5795 -4.7334,0 -7.1239,-3.5285 -7.1239,-7.8716 0,-4.3385 2.8396,-7.8646 7.1239,-7.8646 2.2987,0 4.0564,0.8088 5.3662,2.6215 l 2.6128,-2.4908 c -2.0265,-2.3519 -4.9149,-3.3884 -7.979,-3.3884 -6.5376,0 -10.9092,4.6128 -10.9092,11.1223 0,6.4231 4.4193,11.1293 10.9092,11.1293 3.113,0 5.9932,-1.0412 8.1127,-3.3476 l -2.7941,-2.4896 z"
           style="fill:#79bb05;fill-opacity:1;fill-rule:nonzero;stroke:none"
           id="path4413"
           inkscape:connector-curvature="0" />
        <path
           d="m 560.212,470.3519 c -0.1338,3.574 -2.4778,5.9702 -6.3562,5.9702 -3.8772,0 -6.4445,-2.3962 -6.8971,-5.9702 l 13.2533,0 z m 3.0234,-8.6385 c -2.4825,-3.2098 -5.457,-4.3852 -9.3796,-4.3852 -6.6272,0 -10.6812,4.9735 -10.6812,11.1223 0,6.5609 4.5984,11.1293 10.8161,11.1293 5.9502,0 10.0089,-4.0724 10.0089,-11.0814 l 0,-1.1345 -17.0409,0 c 0.2699,-3.6592 3.0676,-6.778 6.8971,-6.778 3.0234,0 5.0498,1.0844 6.7191,3.2087 l 2.6605,-2.0812 z"
           style="fill:#79bb05;fill-opacity:1;fill-rule:nonzero;stroke:none"
           id="path4415"
           inkscape:connector-curvature="0" />
      </g>
    </g>
    <g
       id="g4691"
       transform="matrix(1.2500001,0,0,-1.2500001,-1080.0001,638.07659)" />
    <g
       id="g5294"
       transform="matrix(0.36733769,0,0,0.36733769,386.76136,1013.3949)">
      <g
         transform="matrix(1.2500001,0,0,-1.2500001,-1080.0001,638.07659)"
         id="g4919">
        <g
           clip-path="url(#clipPath4923)"
           id="g4921">
          <path
             inkscape:connector-curvature="0"
             id="path4927"
             style="fill:#79bb05;fill-opacity:1;fill-rule:nonzero;stroke:none"
             d="m 63.21985,540.0716 0,-2.4268 3.60211,-0.6186 0,-23.2595 -3.82236,-0.5743 0,-2.4267 24.69115,0 1.757,10.6365 -2.2836,0 -4.34996,-7.6355 -7.77687,0 0,23.2595 3.73526,0.6186 0,2.4268 -15.55273,0 z" />
        </g>
      </g>
      <g
         transform="matrix(1.2500001,0,0,-1.2500001,-1080.0001,638.07659)"
         id="g4929">
        <g
           clip-path="url(#clipPath4933)"
           id="g4931">
          <path
             inkscape:connector-curvature="0"
             id="path4937"
             style="fill:#79bb05;fill-opacity:1;fill-rule:nonzero;stroke:none"
             d="m 104.671,512.8401 c 2.5039,0.3088 3.471,4.1486 2.8122,9.313 -0.6597,5.1634 -2.5489,8.6061 -5.0968,8.253 -2.50385,-0.3087 -3.47096,-4.1486 -2.8112,-9.312 0.6587,-5.1644 2.5479,-8.607 5.0958,-8.254 m -13.31217,8.4743 c 0,6.7524 5.22796,12.0043 12.16987,12.0043 7.2493,0 12.1699,-4.5901 12.1699,-11.2541 0,-6.8409 -5.1409,-12.0939 -12.1699,-12.0939 -8.04017,0 -12.16987,5.253 -12.16987,11.3437" />
          <path
             inkscape:connector-curvature="0"
             id="path4939"
             style="fill:#79bb05;fill-opacity:1;fill-rule:nonzero;stroke:none"
             d="m 117.5778,520.8727 c 0,7.9443 6.0189,12.5344 12.4772,12.5344 4.6133,0 7.1612,-2.7356 7.1612,-5.5164 0,-2.1181 -1.3615,-3.3099 -3.558,-3.3099 -1.1864,0 -2.1525,0.2203 -2.1525,0.2203 l -0.6157,5.5607 c 0,0 -0.9231,0.3097 -1.6699,0.3097 -3.3388,0 -4.6133,-3.7966 -4.6133,-6.3119 0,-6.0907 3.2958,-8.7831 7.0741,-8.7831 2.7682,0 5.0087,1.9863 5.0087,1.9863 l 1.0102,-1.3245 c -2.4158,-3.5744 -5.0958,-6.135 -9.5339,-6.135 -6.6776,0 -10.5881,4.8557 -10.5881,10.7694" />
          <path
             inkscape:connector-curvature="0"
             id="path4941"
             style="fill:#79bb05;fill-opacity:1;fill-rule:nonzero;stroke:none"
             d="m 152.1886,515.5321 0,6.0465 -1.6699,-0.4405 c -2.8553,-0.7946 -3.6021,-1.8979 -3.6021,-3.3995 0,-2.0295 1.4056,-3.2213 2.9874,-3.2213 1.0542,0 1.8451,0.5743 2.2846,1.0148 m -12.6094,0.7502 c 0,3.7524 2.8993,5.2963 7.03,6.2678 l 5.5794,1.2792 0,1.4131 c 0,2.8684 -0.9231,5.2519 -3.6472,5.2519 -0.6587,0 -1.7129,-0.2202 -2.1084,-0.3973 l 0,-4.7218 c -0.7468,-0.3098 -1.8891,-0.707 -3.2948,-0.707 -1.6258,0 -2.7681,0.7944 -2.7681,2.5595 0,2.6934 5.1849,6.0475 10.9395,6.0475 6.3262,0 8.4796,-2.6924 8.4796,-8.077 l 0,-9.6661 c 0,-1.589 0.4836,-1.7208 1.8011,-1.7208 l 1.5818,0 0,-1.8536 c 0,0 -3.5581,-1.766 -6.2832,-1.766 -3.0745,0 -3.9535,1.766 -4.437,4.0611 l -0.1752,0 c -1.3626,-1.8978 -2.8122,-4.0611 -6.1951,-4.0611 -3.6461,0 -6.5024,2.4721 -6.5024,6.0906" />
          <path
             inkscape:connector-curvature="0"
             id="path4943"
             style="fill:#79bb05;fill-opacity:1;fill-rule:nonzero;stroke:none"
             d="m 164.5504,513.1489 2.9874,0.5743 0,25.5978 -3.1186,0.7513 0,2.2941 10.7192,1.3245 0,-29.9677 3.1636,-0.5743 0,-2.3835 -13.7516,0 0,2.3835 z" />
          <path
             inkscape:connector-curvature="0"
             id="path4945"
             style="fill:#79bb05;fill-opacity:1;fill-rule:nonzero;stroke:none"
             d="m 190.8895,520.8727 c 0,7.9443 6.0189,12.5344 12.4772,12.5344 4.6133,0 7.1622,-2.7356 7.1622,-5.5164 0,-2.1181 -1.3626,-3.3099 -3.5591,-3.3099 -1.1863,0 -2.1524,0.2203 -2.1524,0.2203 l -0.6157,5.5607 c 0,0 -0.9231,0.3097 -1.6699,0.3097 -3.3388,0 -4.6133,-3.7966 -4.6133,-6.3119 0,-6.0907 3.2958,-8.7831 7.0741,-8.7831 2.7681,0 5.0087,1.9863 5.0087,1.9863 l 1.0101,-1.3245 c -2.4157,-3.5744 -5.0958,-6.135 -9.5338,-6.135 -6.6776,0 -10.5881,4.8557 -10.5881,10.7694" />
          <path
             inkscape:connector-curvature="0"
             id="path4947"
             style="fill:#79bb05;fill-opacity:1;fill-rule:nonzero;stroke:none"
             d="m 225.5525,512.8401 c 2.5039,0.3088 3.471,4.1486 2.8122,9.313 -0.6597,5.1634 -2.5489,8.6061 -5.0968,8.253 -2.5038,-0.3087 -3.4709,-4.1486 -2.8112,-9.312 0.6588,-5.1644 2.5479,-8.607 5.0958,-8.254 m -13.3122,8.4743 c 0,6.7524 5.228,12.0043 12.1699,12.0043 7.2493,0 12.1699,-4.5901 12.1699,-11.2541 0,-6.8409 -5.1409,-12.0939 -12.1699,-12.0939 -8.0401,0 -12.1699,5.253 -12.1699,11.3437" />
          <path
             inkscape:connector-curvature="0"
             id="path4949"
             style="fill:#79bb05;fill-opacity:1;fill-rule:nonzero;stroke:none"
             d="m 237.6166,513.1489 2.9874,0.5743 0,14.5197 -2.9874,0.5743 0,2.2065 8.9622,2.4721 0.2202,0 0.9661,-3.8841 0.0881,0 c 1.2304,1.3678 3.8664,3.7956 7.4255,3.7956 4.8325,0 7.3814,-2.3393 7.3814,-7.371 l 0,-12.3131 3.0305,-0.5743 0,-2.3835 -12.9608,0 0,2.4278 2.3286,0.53 0,10.2393 c 0,3.2224 -1.3615,4.899 -4.1297,4.8547 -1.1423,-0.0443 -2.1094,-0.3973 -2.7241,-0.7503 l 0,-14.3437 2.4168,-0.5743 0,-2.3835 -13.0048,0 0,2.3835 z" />
          <path
             inkscape:connector-curvature="0"
             id="path4951"
             style="fill:#79bb05;fill-opacity:1;fill-rule:nonzero;stroke:none"
             d="m 267.8121,511.6924 -0.7899,7.5028 2.1955,0 2.5929,-4.7662 c 1.0542,-1.1918 2.1965,-1.8535 3.9095,-1.8535 1.8901,0 3.1646,1.059 3.1646,2.5153 0,1.4573 -1.0993,2.4721 -3.471,3.5311 l -2.8562,1.2803 c -3.4269,1.5448 -4.6573,3.4416 -4.6573,6.2667 0,4.0611 3.9545,7.2383 9.4457,7.2383 2.9444,0 5.1409,-0.6176 7.5126,-1.6333 l 0.1762,-6.664 -2.1084,0 -1.8451,4.0158 c -0.6587,0.7513 -1.714,1.5459 -3.3829,1.5459 -1.6699,0 -2.8572,-0.9273 -2.8572,-2.4279 0,-1.1033 0.5286,-1.8978 2.9884,-2.9568 l 2.7682,-1.1918 c 4.2168,-1.8103 5.5363,-3.4426 5.5363,-6.488 0,-4.2371 -4.1307,-7.6797 -9.9304,-7.6797 -3.3388,0 -5.1398,0.529 -8.3915,1.765" />
          <path
             inkscape:connector-curvature="0"
             id="path4953"
             style="fill:#79bb05;fill-opacity:1;fill-rule:nonzero;stroke:none"
             d="m 295.1167,524.9775 7.4245,0 c 0,2.8251 -0.7469,5.5607 -3.471,5.5607 -1.9762,0 -3.7783,-1.8978 -3.9535,-5.5607 m -6.7667,-4.1054 c 0,8.2098 6.5905,12.5354 12.0387,12.5354 6.6786,0 9.3577,-5.1643 9.5329,-11.2108 l -14.6297,0 c 0.7469,-4.8547 3.9986,-6.841 7.7318,-6.841 3.471,0 5.9318,2.2066 5.9318,2.2066 l 1.0982,-1.3235 c -1.9772,-2.5596 -4.6122,-6.135 -10.8073,-6.135 -7.4695,0 -10.8964,5.3847 -10.8964,10.7683" />
          <path
             inkscape:connector-curvature="0"
             id="path4955"
             style="fill:#79bb05;fill-opacity:1;fill-rule:nonzero;stroke:none"
             d="m 311.3666,513.1489 2.9874,0.5743 0,14.5197 -2.9874,0.5743 0,2.2065 8.5678,2.3836 0.2623,0 1.4507,-4.4141 0.0871,0 0.1761,0.353 c 1.0543,1.943 2.7682,4.0611 5.2721,4.0611 2.3286,0 3.8223,-1.589 3.6461,-3.8399 -0.2192,-2.6038 -2.5469,-4.1486 -2.5469,-4.1486 l -5.4922,2.6923 -0.835,-0.3087 0,-14.0792 4.1738,-0.5743 0,-2.3835 -14.7619,0 0,2.3835 z" />
          <path
             inkscape:connector-curvature="0"
             id="path4957"
             style="fill:#79bb05;fill-opacity:1;fill-rule:nonzero;stroke:none"
             d="m 341.135,510.3685 -7.2042,19.2437 -2.2416,0.4405 0,2.5163 13.4003,0 0,-2.5596 -3.1196,-0.3972 3.9976,-11.9612 0.1321,-0.6617 0.0881,0 0.1763,0.6617 4.3049,11.5197 -2.9434,0.8387 0,2.5596 9.4898,0 0,-2.5596 -2.4167,-0.3972 -7.5997,-19.2437 -6.0639,0 z" />
          <path
             inkscape:connector-curvature="0"
             id="path4959"
             style="fill:#79bb05;fill-opacity:1;fill-rule:nonzero;stroke:none"
             d="m 370.5797,515.5321 0,6.0465 -1.6699,-0.4405 c -2.8563,-0.7946 -3.6032,-1.8979 -3.6032,-3.3995 0,-2.0295 1.4067,-3.2213 2.9884,-3.2213 1.0542,0 1.8461,0.5743 2.2847,1.0148 m -12.6094,0.7502 c 0,3.7524 2.9003,5.2963 7.03,6.2678 l 5.5794,1.2792 0,1.4131 c 0,2.8684 -0.9231,5.2519 -3.6472,5.2519 -0.6588,0 -1.713,-0.2202 -2.1084,-0.3973 l 0,-4.7218 c -0.7469,-0.3098 -1.8892,-0.707 -3.2948,-0.707 -1.6258,0 -2.7681,0.7944 -2.7681,2.5595 0,2.6934 5.1839,6.0475 10.9395,6.0475 6.3262,0 8.4796,-2.6924 8.4796,-8.077 l 0,-9.6661 c 0,-1.589 0.4826,-1.7208 1.8021,-1.7208 l 1.5808,0 0,-1.8536 c 0,0 -3.5591,-1.766 -6.2832,-1.766 -3.0745,0 -3.9535,1.766 -4.437,4.0611 l -0.1752,0 c -1.3616,-1.8978 -2.8122,-4.0611 -6.1951,-4.0611 -3.6462,0 -6.5024,2.4721 -6.5024,6.0906" />
          <path
             inkscape:connector-curvature="0"
             id="path4961"
             style="fill:#79bb05;fill-opacity:1;fill-rule:nonzero;stroke:none"
             d="m 383.8291,515.8857 0.2633,13.858 -3.0755,0 0,2.3393 3.0755,1.0601 5.1839,6.2224 2.1535,0 0,-6.7967 5.3591,0 0,-3.0896 -5.2269,0 0,-11.8726 c 0,-2.7809 1.844,-3.1329 3.4259,-3.1329 1.0982,0 1.8891,0.0875 1.8891,0.0875 l 0.5286,-2.3836 c 0,0 -3.7793,-2.0738 -8.0412,-2.0738 -4.1737,0 -5.6234,2.1623 -5.5353,5.7819" />
          <path
             inkscape:connector-curvature="0"
             id="path4963"
             style="fill:#79bb05;fill-opacity:1;fill-rule:nonzero;stroke:none"
             d="m 401.0968,539.9834 c 0,2.2065 1.714,4.0169 4.2619,4.0169 2.636,0 4.2618,-1.8104 4.2618,-4.0169 0,-2.2508 -1.7129,-4.1044 -4.2618,-4.1044 -2.636,0 -4.2619,1.8536 -4.2619,4.1044 m -2.5479,-26.7906 2.9874,0.53 0,14.5207 -2.9874,0.5733 0,2.4278 10.5881,2.1623 0,-19.6841 2.68,-0.53 0,-2.4268 -13.2681,0 0,2.4268 z" />
          <path
             inkscape:connector-curvature="0"
             id="path4965"
             style="fill:#79bb05;fill-opacity:1;fill-rule:nonzero;stroke:none"
             d="m 426.0628,512.8401 c 2.5039,0.3088 3.471,4.1486 2.8122,9.313 -0.6607,5.1634 -2.5489,8.6061 -5.0968,8.253 -2.5049,-0.3087 -3.4709,-4.1486 -2.8122,-9.312 0.6588,-5.1644 2.5479,-8.607 5.0968,-8.254 m -13.3132,8.4743 c 0,6.7524 5.229,12.0043 12.1699,12.0043 7.2503,0 12.1709,-4.5901 12.1709,-11.2541 0,-6.8409 -5.1409,-12.0939 -12.1709,-12.0939 -8.0392,0 -12.1699,5.253 -12.1699,11.3437" />
          <path
             inkscape:connector-curvature="0"
             id="path4967"
             style="fill:#79bb05;fill-opacity:1;fill-rule:nonzero;stroke:none"
             d="m 438.1263,513.1489 2.9874,0.5743 0,14.5197 -2.9874,0.5743 0,2.2065 8.9623,2.4721 0.2202,0 0.9661,-3.8841 0.0881,0 c 1.2304,1.3678 3.8664,3.7956 7.4255,3.7956 4.8325,0 7.3804,-2.3393 7.3804,-7.371 l 0,-12.3131 3.0314,-0.5743 0,-2.3835 -12.9607,0 0,2.4278 2.3286,0.53 0,10.2393 c 0,3.2224 -1.3615,4.899 -4.1297,4.8547 -1.1423,-0.0443 -2.1094,-0.3973 -2.7241,-0.7503 l 0,-14.3437 2.4158,-0.5743 0,-2.3835 -13.0039,0 0,2.3835 z" />
          <path
             inkscape:connector-curvature="0"
             id="path4969"
             style="fill:#79bb05;fill-opacity:1;fill-rule:nonzero;stroke:none"
             d="m 469.0474,514.0761 c 0,2.2066 1.8021,4.0159 3.9545,4.0159 2.1965,0 3.9976,-1.8093 3.9976,-4.0159 0,-2.1181 -1.8011,-3.9284 -3.9976,-3.9284 -2.1524,0 -3.9545,1.8103 -3.9545,3.9284" />
          <path
             inkscape:connector-curvature="0"
             id="path4971"
             style="fill:#79bb05;fill-opacity:1;fill-rule:nonzero;stroke:none"
             d="m 63.351,470.9913 c 0,9.9738 8.39157,17.036 18.76039,17.036 3.86641,0 7.11711,-1.1032 9.53387,-2.3835 l 0.2633,-8.076 -2.32866,0 -2.85525,6.3109 c -0.83496,0.53 -2.59296,1.236 -4.96466,1.236 -4.83251,0 -9.40172,-4.1053 -9.40172,-11.4753 0,-8.8273 4.56921,-13.5059 10.14857,-13.5059 0.9661,0 1.97625,0.177 2.63601,0.353 l 0,8.4742 -3.73427,0.4858 0,2.3826 13.09193,0 0,-2.3826 -2.1084,-0.6175 0,-9.1361 -1.6699,-0.6627 c -2.4598,-0.9706 -6.01886,-2.0306 -11.11567,-2.0306 -11.20278,0 -16.25554,6.9305 -16.25554,13.9917" />
          <path
             inkscape:connector-curvature="0"
             id="path4973"
             style="fill:#79bb05;fill-opacity:1;fill-rule:nonzero;stroke:none"
             d="m 95.8103,460.1778 2.98741,0.5743 0,25.5978 -3.11856,0.7513 0,2.295 10.71925,1.3236 0,-29.9677 3.1636,-0.5743 0,-2.3836 -13.7517,0 0,2.3836 z" />
          <path
             inkscape:connector-curvature="0"
             id="path4975"
             style="fill:#79bb05;fill-opacity:1;fill-rule:nonzero;stroke:none"
             d="m 123.4815,459.8688 c 2.5039,0.3088 3.471,4.1487 2.8122,9.3131 -0.6597,5.1634 -2.5489,8.606 -5.0968,8.253 -2.5038,-0.3088 -3.4709,-4.1486 -2.8112,-9.312 0.6588,-5.1645 2.5479,-8.6071 5.0958,-8.2541 m -13.3121,8.4743 c 0,6.7525 5.2279,12.0044 12.1698,12.0044 7.2493,0 12.1699,-4.5901 12.1699,-11.2541 0,-6.841 -5.1408,-12.0939 -12.1699,-12.0939 -8.0401,0 -12.1698,5.2529 -12.1698,11.3436" />
          <path
             inkscape:connector-curvature="0"
             id="path4977"
             style="fill:#79bb05;fill-opacity:1;fill-rule:nonzero;stroke:none"
             d="m 145.2153,475.2283 0,-14.1234 c 0,0 1.2745,-1.3678 3.2958,-1.3678 2.7671,0 4.9636,2.7798 4.9636,8.2088 0,4.8104 -2.1524,7.9 -5.7115,7.9 -1.0982,0 -1.9762,-0.3088 -2.5479,-0.6176 m -6.1951,-16.683 -1.4055,0.5733 0,27.2321 -3.1196,0.7503 0,2.295 10.7202,1.3236 0,-13.5935 c 1.2304,1.5006 3.3388,3.1329 6.5024,3.1329 4.7004,0 9.2696,-2.9558 9.2696,-10.2393 0,-7.4585 -7.1602,-12.8875 -14.6297,-12.8875 -2.2846,0 -5.4912,0.6628 -7.3374,1.4131" />
          <path
             inkscape:connector-curvature="0"
             id="path4979"
             style="fill:#79bb05;fill-opacity:1;fill-rule:nonzero;stroke:none"
             d="m 175.3888,462.5615 0,6.0464 -1.6699,-0.4415 c -2.8552,-0.7945 -3.6021,-1.8978 -3.6021,-3.3983 0,-2.0306 1.4056,-3.2224 2.9874,-3.2224 1.0542,0 1.8451,0.5743 2.2846,1.0158 m -12.6094,0.7503 c 0,3.7513 2.8994,5.2961 7.0301,6.2677 l 5.5793,1.2793 0,1.412 c 0,2.8693 -0.923,5.2519 -3.6471,5.2519 -0.6588,0 -1.713,-0.2202 -2.1084,-0.3972 l 0,-4.7219 c -0.7469,-0.3088 -1.8892,-0.7061 -3.2948,-0.7061 -1.6259,0 -2.7681,0.7946 -2.7681,2.5596 0,2.6924 5.1849,6.0465 10.9394,6.0465 6.3262,0 8.4797,-2.6924 8.4797,-8.077 l 0,-9.6651 c 0,-1.5891 0.4835,-1.7218 1.801,-1.7218 l 1.5818,0 0,-1.8536 c 0,0 -3.558,-1.765 -6.2831,-1.765 -3.0745,0 -3.9535,1.765 -4.4371,4.0601 l -0.1752,0 c -1.3625,-1.8978 -2.8122,-4.0601 -6.195,-4.0601 -3.6462,0 -6.5025,2.471 -6.5025,6.0907" />
          <path
             inkscape:connector-curvature="0"
             id="path4981"
             style="fill:#79bb05;fill-opacity:1;fill-rule:nonzero;stroke:none"
             d="m 187.7506,460.1778 2.9874,0.5743 0,25.5978 -3.1185,0.7513 0,2.295 10.7192,1.3236 0,-29.9677 3.1636,-0.5743 0,-2.3836 -13.7517,0 0,2.3836 z" />
          <path
             inkscape:connector-curvature="0"
             id="path4983"
             style="fill:#79bb05;fill-opacity:1;fill-rule:nonzero;stroke:none"
             d="m 229.8533,460.222 2.3287,0.53 0,10.2393 c 0,3.2213 -1.3616,4.8989 -4.1297,4.8546 -1.1423,-0.0442 -2.1084,-0.3972 -2.7241,-0.7502 l 0,-14.3437 2.4167,-0.5743 0,-2.3836 -13.0048,0 0,2.3836 2.9874,0.5743 0,25.5978 -3.1196,0.7513 0,2.295 10.7203,1.3236 0,-13.7262 c 1.3615,1.4563 3.8223,3.4426 7.073,3.4426 4.8335,0 7.3814,-2.3393 7.3814,-7.37 l 0,-12.3141 3.0315,-0.5743 0,-2.3836 -12.9608,0 0,2.4279 z" />
          <path
             inkscape:connector-curvature="0"
             id="path4985"
             style="fill:#79bb05;fill-opacity:1;fill-rule:nonzero;stroke:none"
             d="m 250.3176,472.0064 7.4254,0 c 0,2.8251 -0.7468,5.5606 -3.4709,5.5606 -1.9763,0 -3.7783,-1.8977 -3.9545,-5.5606 m -6.7658,-4.1054 c 0,8.2097 6.5905,12.5354 12.0388,12.5354 6.6776,0 9.3576,-5.1634 9.5328,-11.2109 l -14.6296,0 c 0.7458,-4.8546 3.9975,-6.8409 7.7318,-6.8409 3.4709,0 5.9317,2.2065 5.9317,2.2065 l 1.0983,-1.3235 c -1.9773,-2.5596 -4.6133,-6.1349 -10.8083,-6.1349 -7.4686,0 -10.8955,5.3846 -10.8955,10.7683" />
          <path
             inkscape:connector-curvature="0"
             id="path4987"
             style="fill:#79bb05;fill-opacity:1;fill-rule:nonzero;stroke:none"
             d="m 280.0125,462.5615 0,6.0464 -1.6699,-0.4415 c -2.8563,-0.7945 -3.6031,-1.8978 -3.6031,-3.3983 0,-2.0306 1.4066,-3.2224 2.9884,-3.2224 1.0542,0 1.8451,0.5743 2.2846,1.0158 m -12.6094,0.7503 c 0,3.7513 2.8993,5.2961 7.03,6.2677 l 5.5794,1.2793 0,1.412 c 0,2.8693 -0.9231,5.2519 -3.6472,5.2519 -0.6587,0 -1.7129,-0.2202 -2.1084,-0.3972 l 0,-4.7219 c -0.7468,-0.3088 -1.8891,-0.7061 -3.2947,-0.7061 -1.6259,0 -2.7692,0.7946 -2.7692,2.5596 0,2.6924 5.1849,6.0465 10.9405,6.0465 6.3262,0 8.4797,-2.6924 8.4797,-8.077 l 0,-9.6651 c 0,-1.5891 0.4825,-1.7218 1.801,-1.7218 l 1.5818,0 0,-1.8536 c 0,0 -3.559,-1.765 -6.2832,-1.765 -3.0745,0 -3.9535,1.765 -4.436,4.0601 l -0.1762,0 c -1.3616,-1.8978 -2.8122,-4.0601 -6.1961,-4.0601 -3.6451,0 -6.5014,2.471 -6.5014,6.0907" />
          <path
             inkscape:connector-curvature="0"
             id="path4989"
             style="fill:#79bb05;fill-opacity:1;fill-rule:nonzero;stroke:none"
             d="m 292.3753,460.1778 2.9864,0.5743 0,25.5978 -3.1186,0.7513 0,2.295 10.7202,1.3236 0,-29.9677 3.1626,-0.5743 0,-2.3836 -13.7506,0 0,2.3836 z" />
          <path
             inkscape:connector-curvature="0"
             id="path4991"
             style="fill:#79bb05;fill-opacity:1;fill-rule:nonzero;stroke:none"
             d="m 308.636,462.9141 0.2634,13.8589 -3.0755,0 0,2.3394 3.0755,1.059 5.1839,6.2235 2.1534,0 0,-6.7978 5.3591,0 0,-3.0886 -5.2269,0 0,-11.8726 c 0,-2.7808 1.8441,-3.1339 3.4259,-3.1339 1.0982,0 1.8891,0.0885 1.8891,0.0885 l 0.5286,-2.3835 c 0,0 -3.7793,-2.0749 -8.0411,-2.0749 -4.1738,0 -5.6235,2.1634 -5.5354,5.782" />
          <path
             inkscape:connector-curvature="0"
             id="path4993"
             style="fill:#79bb05;fill-opacity:1;fill-rule:nonzero;stroke:none"
             d="m 338.5314,460.222 2.3286,0.53 0,10.2393 c 0,3.2213 -1.3615,4.8989 -4.1297,4.8546 -1.1423,-0.0442 -2.1084,-0.3972 -2.724,-0.7502 l 0,-14.3437 2.4167,-0.5743 0,-2.3836 -13.0048,0 0,2.3836 2.9874,0.5743 0,25.5978 -3.1196,0.7513 0,2.295 10.7203,1.3236 0,-13.7262 c 1.3625,1.4563 3.8223,3.4426 7.074,3.4426 4.8325,0 7.3804,-2.3393 7.3804,-7.37 l 0,-12.3141 3.0315,-0.5743 0,-2.3836 -12.9608,0 0,2.4279 z" />
          <path
             inkscape:connector-curvature="0"
             id="path4995"
             style="fill:#79bb05;fill-opacity:1;fill-rule:nonzero;stroke:none"
             d="m 354.317,461.1049 c 0,2.2066 1.802,4.0159 3.9545,4.0159 2.1965,0 3.9975,-1.8093 3.9975,-4.0159 0,-2.1181 -1.801,-3.9284 -3.9975,-3.9284 -2.1525,0 -3.9545,1.8103 -3.9545,3.9284" />
        </g>
      </g>
    </g>
  </g>
</svg>
